<svg width="76" height="15" viewBox="0 0 76 15" fill="none" xmlns="http://www.w3.org/2000/svg">
<path d="M16.9777 14.953C16.082 14.953 15.2722 14.7891 14.5483 14.4612C13.8367 14.1333 13.2723 13.6612 12.8551 13.0449C12.4379 12.4285 12.2232 11.7007 12.2109 10.8613H14.9716C15.0084 11.4253 15.1924 11.8711 15.5237 12.199C15.8673 12.5268 16.3335 12.6908 16.9224 12.6908C17.5237 12.6908 17.996 12.54 18.3396 12.2383C18.6831 11.9236 18.8549 11.5171 18.8549 11.0187C18.8549 10.6122 18.7383 10.2778 18.5052 10.0155C18.2721 9.75318 17.9776 9.54991 17.6218 9.40565C17.2783 9.24828 16.7998 9.0778 16.1863 8.8942C15.3519 8.63191 14.671 8.37618 14.1434 8.12701C13.6281 7.86473 13.1802 7.47786 12.7999 6.9664C12.4318 6.44183 12.2477 5.74677 12.2477 4.88123C12.2477 4.06815 12.4379 3.35998 12.8183 2.75672C13.1986 2.15347 13.7324 1.69447 14.4195 1.37972C15.1066 1.05187 15.8918 0.887939 16.7752 0.887939C18.1003 0.887939 19.1739 1.23547 19.996 1.93052C20.8303 2.61246 21.2904 3.56981 21.3763 4.80255H18.542C18.5175 4.33043 18.3273 3.94356 17.9715 3.64193C17.6279 3.32719 17.1678 3.16982 16.5912 3.16982C16.0881 3.16982 15.6832 3.30752 15.3765 3.58292C15.082 3.85832 14.9348 4.2583 14.9348 4.78288C14.9348 5.15007 15.0452 5.45826 15.2661 5.70743C15.4992 5.94349 15.7814 6.1402 16.1127 6.29757C16.4562 6.44183 16.9347 6.61232 17.5482 6.80903C18.3825 7.07131 19.0635 7.3336 19.5911 7.59589C20.1187 7.85817 20.5726 8.2516 20.953 8.77617C21.3334 9.30074 21.5235 9.98924 21.5235 10.8417C21.5235 11.5761 21.3456 12.258 20.9898 12.8875C20.634 13.517 20.1125 14.0219 19.4254 14.4022C18.7383 14.7694 17.9224 14.953 16.9777 14.953Z" fill="#18063C"/>
<path d="M22.9108 9.32697C22.9108 8.22537 23.1132 7.24836 23.5181 6.39593C23.9353 5.5435 24.4935 4.88779 25.1929 4.42879C25.9045 3.96979 26.6959 3.74029 27.5671 3.74029C28.3278 3.74029 28.9903 3.90422 29.5547 4.23208C30.1314 4.55993 30.5915 4.97303 30.935 5.47137V3.91733H33.5301V14.8153H30.935V13.2219C30.6038 13.7334 30.1437 14.1596 29.5547 14.5005C28.9781 14.8284 28.3094 14.9923 27.5487 14.9923C26.6898 14.9923 25.9045 14.7563 25.1929 14.2842C24.4935 13.812 23.9353 13.1498 23.5181 12.2973C23.1132 11.4318 22.9108 10.4417 22.9108 9.32697ZM30.935 9.36631C30.935 8.69748 30.8124 8.12701 30.567 7.6549C30.3216 7.16967 29.9903 6.80247 29.5731 6.5533C29.156 6.29102 28.7081 6.15987 28.2296 6.15987C27.7511 6.15987 27.3094 6.28446 26.9045 6.53363C26.4996 6.7828 26.1683 7.15 25.9107 7.63523C25.6653 8.10734 25.5426 8.67125 25.5426 9.32697C25.5426 9.98268 25.6653 10.5597 25.9107 11.0581C26.1683 11.5433 26.4996 11.917 26.9045 12.1793C27.3217 12.4416 27.7634 12.5727 28.2296 12.5727C28.7081 12.5727 29.156 12.4482 29.5731 12.199C29.9903 11.9367 30.3216 11.5695 30.567 11.0974C30.8124 10.6122 30.935 10.0351 30.935 9.36631Z" fill="#18063C"/>
<path d="M35.2 9.32697C35.2 8.22537 35.4024 7.24836 35.8073 6.39593C36.2245 5.5435 36.7827 4.88779 37.4821 4.42879C38.1937 3.96979 38.9851 3.74029 39.8563 3.74029C40.617 3.74029 41.2795 3.90422 41.8439 4.23208C42.4206 4.55993 42.8807 4.97303 43.2243 5.47137V3.91733H45.8193V14.8153H43.2243V13.2219C42.893 13.7334 42.4329 14.1596 41.8439 14.5005C41.2673 14.8284 40.5986 14.9923 39.8379 14.9923C38.979 14.9923 38.1937 14.7563 37.4821 14.2842C36.7827 13.812 36.2245 13.1498 35.8073 12.2973C35.4024 11.4318 35.2 10.4417 35.2 9.32697ZM43.2243 9.36631C43.2243 8.69748 43.1016 8.12701 42.8562 7.6549C42.6108 7.16967 42.2795 6.80247 41.8623 6.5533C41.4452 6.29102 40.9973 6.15987 40.5188 6.15987C40.0403 6.15987 39.5986 6.28446 39.1937 6.53363C38.7888 6.7828 38.4575 7.15 38.1999 7.63523C37.9545 8.10734 37.8318 8.67125 37.8318 9.32697C37.8318 9.98268 37.9545 10.5597 38.1999 11.0581C38.4575 11.5433 38.7888 11.917 39.1937 12.1793C39.6109 12.4416 40.0526 12.5727 40.5188 12.5727C40.9973 12.5727 41.4452 12.4482 41.8623 12.199C42.2795 11.9367 42.6108 11.5695 42.8562 11.0974C43.1016 10.6122 43.2243 10.0351 43.2243 9.36631Z" fill="#18063C"/>
<path d="M52.5872 14.953C51.6915 14.953 50.8817 14.7891 50.1578 14.4612C49.4462 14.1333 48.8818 13.6612 48.4646 13.0449C48.0474 12.4285 47.8327 11.7007 47.8204 10.8613H50.5811C50.6179 11.4253 50.802 11.8711 51.1332 12.199C51.4768 12.5268 51.943 12.6908 52.532 12.6908C53.1332 12.6908 53.6055 12.54 53.9491 12.2383C54.2926 11.9236 54.4644 11.5171 54.4644 11.0187C54.4644 10.6122 54.3479 10.2778 54.1147 10.0155C53.8816 9.75318 53.5871 9.54991 53.2313 9.40565C52.8878 9.24828 52.4093 9.0778 51.7958 8.8942C50.9615 8.63191 50.2805 8.37618 49.7529 8.12701C49.2376 7.86473 48.7897 7.47786 48.4094 6.9664C48.0413 6.44183 47.8573 5.74677 47.8573 4.88123C47.8573 4.06815 48.0474 3.35998 48.4278 2.75672C48.8082 2.15347 49.3419 1.69447 50.029 1.37972C50.7161 1.05187 51.5013 0.887939 52.3847 0.887939C53.7098 0.887939 54.7834 1.23547 55.6055 1.93052C56.4398 2.61246 56.8999 3.56981 56.9858 4.80255H54.1515C54.127 4.33043 53.9368 3.94356 53.581 3.64193C53.2375 3.32719 52.7774 3.16982 52.2007 3.16982C51.6976 3.16982 51.2927 3.30752 50.986 3.58292C50.6915 3.85832 50.5443 4.2583 50.5443 4.78288C50.5443 5.15007 50.6547 5.45826 50.8756 5.70743C51.1087 5.94349 51.3909 6.1402 51.7222 6.29757C52.0657 6.44183 52.5442 6.61232 53.1577 6.80903C53.992 7.07131 54.673 7.3336 55.2006 7.59589C55.7282 7.85817 56.1822 8.2516 56.5625 8.77617C56.9429 9.30074 57.133 9.98924 57.133 10.8417C57.133 11.5761 56.9551 12.258 56.5993 12.8875C56.2435 13.517 55.722 14.0219 55.035 14.4022C54.3479 14.7694 53.5319 14.953 52.5872 14.953Z" fill="#18063C"/>
<path d="M62.1827 6.17954V11.4515C62.1827 11.8187 62.2625 12.0875 62.422 12.258C62.5938 12.4154 62.876 12.4941 63.2686 12.4941H64.4649V14.8153H62.8453C60.6736 14.8153 59.5877 13.6875 59.5877 11.4318V6.17954H58.373V3.91733H59.5877V1.22235H62.1827V3.91733H64.4649V6.17954H62.1827Z" fill="#18063C"/>
<path d="M70.6615 14.9923C69.68 14.9923 68.7966 14.7628 68.0113 14.3038C67.226 13.8317 66.6064 13.1694 66.1525 12.317C65.7108 11.4646 65.4899 10.481 65.4899 9.36631C65.4899 8.2516 65.7169 7.26803 66.1709 6.4156C66.6371 5.56317 67.269 4.90746 68.0665 4.44846C68.864 3.97635 69.7536 3.74029 70.7351 3.74029C71.7167 3.74029 72.6063 3.97635 73.4038 4.44846C74.2013 4.90746 74.827 5.56317 75.281 6.4156C75.7473 7.26803 75.9804 8.2516 75.9804 9.36631C75.9804 10.481 75.7411 11.4646 75.2626 12.317C74.7964 13.1694 74.1583 13.8317 73.3486 14.3038C72.551 14.7628 71.6554 14.9923 70.6615 14.9923ZM70.6615 12.5924C71.1278 12.5924 71.5633 12.4744 71.9682 12.2383C72.3854 11.9892 72.7167 11.622 72.9621 11.1367C73.2075 10.6515 73.3302 10.0614 73.3302 9.36631C73.3302 8.33028 73.0725 7.53687 72.5572 6.98607C72.0541 6.42216 71.4345 6.1402 70.6983 6.1402C69.9622 6.1402 69.3425 6.42216 68.8395 6.98607C68.3487 7.53687 68.1033 8.33028 68.1033 9.36631C68.1033 10.4023 68.3426 11.2023 68.8211 11.7662C69.3119 12.317 69.9254 12.5924 70.6615 12.5924Z" fill="#18063C"/>
<path d="M6.04588 12.2255H3.44037C2.35069 12.2255 1.4668 11.2339 1.4668 10.0094V5.46614C1.4668 4.24253 2.34988 3.25 3.44037 3.25H6.61543C6.26139 3.28912 5.91868 3.37373 5.58975 3.50655C5.12229 3.69577 4.74232 3.98052 4.44984 4.35989C4.15737 4.73925 4.01073 5.19412 4.01073 5.72542C4.01073 6.29401 4.13469 6.75616 4.3826 7.10914C4.6297 7.46303 4.92866 7.72867 5.27784 7.90516C5.62621 8.08256 6.07667 8.25905 6.62839 8.43645C7.07885 8.58838 7.43046 8.7212 7.68404 8.83492C7.93682 8.94864 8.14827 9.10694 8.3176 9.3089C8.48611 9.51086 8.57037 9.77014 8.57037 10.0858C8.57037 10.5534 8.4213 10.9173 8.12316 11.1757C7.82501 11.435 7.41102 11.5642 6.88198 11.5642C6.29622 11.5642 5.84901 11.4532 5.53952 11.2321C5.23004 11.011 5.0753 10.7108 5.0753 10.3315C5.0753 10.054 5.14011 9.83837 5.26974 9.68644C5.39936 9.53452 5.46418 9.45264 5.46418 9.4399C5.46418 9.37713 5.39369 9.28798 5.25272 9.17426C5.11175 9.06054 4.95134 9.00323 4.77148 9.00323C4.45633 9.00323 4.20031 9.11694 4.00344 9.34438C3.80657 9.57182 3.70773 9.8693 3.70773 10.2359C3.70773 10.8809 3.98886 11.3804 4.55193 11.7334C4.96025 11.9926 5.45932 12.1546 6.04588 12.2255Z" fill="#FA865F"/>
<path d="M7.56223 2.45972H3.40687C1.96152 2.45972 0.785156 3.78067 0.785156 5.40365V10.0697C0.785156 11.6936 1.96152 13.0137 3.40687 13.0137H7.56223C9.00838 13.0137 10.1848 11.6927 10.1848 10.0697V5.40365C10.1848 3.78067 9.00838 2.45972 7.56223 2.45972ZM9.96033 10.0697C9.96033 11.5563 8.88686 12.7617 7.56304 12.7617H3.40687C2.08305 12.7617 1.00957 11.5563 1.00957 10.0697V5.40365C1.00957 3.91713 2.08305 2.71172 3.40687 2.71172H7.56223C8.12692 2.71172 8.64543 2.93278 9.05538 3.30123C9.52203 3.80705 9.8299 4.65493 9.48152 5.50372C9.43534 5.64655 9.36648 5.77756 9.27493 5.89582C9.0894 6.136 8.84392 6.25608 8.54011 6.25608C8.35944 6.25608 8.19983 6.19877 8.05887 6.08505C7.9179 5.97133 7.84741 5.88309 7.84741 5.8194C7.84741 5.80667 7.89278 5.75663 7.98271 5.66748C8.07264 5.57923 8.15447 5.47461 8.22819 5.35452C8.30111 5.23444 8.33837 5.09252 8.33837 4.92785C8.31569 4.5867 8.16338 4.32105 7.88225 4.13183C7.60031 3.9426 7.26814 3.84708 6.88574 3.84708C6.45797 3.84708 6.08367 3.95807 5.76284 4.17913C5.44202 4.4002 5.2816 4.70679 5.2816 5.09889C5.2816 5.45278 5.34885 5.73389 5.48414 5.94222C5.61944 6.15055 5.82199 6.31885 6.09177 6.4444C6.36156 6.57085 6.78933 6.74189 7.37508 6.95659C7.97137 7.17129 8.43884 7.37052 8.77668 7.55429C9.06348 7.70985 9.29599 7.91364 9.48152 8.16018C9.48395 8.16382 9.48639 8.16655 9.48882 8.17019C9.80316 8.59504 9.96033 9.13815 9.96033 9.69037V10.0697Z" fill="#FA865F"/>
</svg>
