<svg width="45" height="51" viewBox="0 0 45 51" fill="none" xmlns="http://www.w3.org/2000/svg">
<path opacity="0.5" d="M43.2592 1.23769C42.9884 0.561503 42.2207 0.232918 41.5445 0.503774C40.8683 0.774629 40.5397 1.54236 40.8106 2.21854L43.2592 1.23769ZM28.2295 23.7354L28.3618 25.0476L28.2295 23.7354ZM1.28351 37.7302C0.672617 38.1269 0.499003 38.9437 0.895735 39.5546L7.36086 49.5098C7.7576 50.1207 8.57444 50.2943 9.18533 49.8975C9.79623 49.5008 9.96984 48.684 9.57311 48.0731L3.82633 39.2241L12.6753 33.4773C13.2862 33.0806 13.4598 32.2637 13.0631 31.6528C12.6664 31.0419 11.8495 30.8683 11.2386 31.265L1.28351 37.7302ZM40.8106 2.21854C42.064 5.34774 42.8657 10.0582 41.4064 14.1033C40.6876 16.0958 39.4166 17.9446 37.3379 19.4069C35.2488 20.8764 32.2773 22.0016 28.0972 22.4231L28.3618 25.0476C32.8787 24.5922 36.3121 23.3535 38.8556 21.5644C41.4094 19.7679 42.9987 17.4628 43.8877 14.9984C45.6441 10.1296 44.6515 4.71344 43.2592 1.23769L40.8106 2.21854ZM28.0972 22.4231C22.8924 22.9479 19.5246 21.8442 17.5149 20.2357C15.512 18.6325 14.7061 16.4124 14.8122 14.3399C14.9198 12.2379 15.9536 10.3831 17.5257 9.44902C19.0368 8.55124 21.3213 8.3467 24.3064 10.0908L25.6371 7.81326C22.0193 5.69948 18.6918 5.68795 16.1783 7.18125C13.726 8.63828 12.3228 11.3726 12.1778 14.205C12.0313 17.0668 13.157 20.1263 15.8666 22.2951C18.5695 24.4585 22.6953 25.619 28.3618 25.0476L28.0972 22.4231ZM24.3064 10.0908C27.1844 11.7724 28.6359 14.4892 28.8684 17.6596C29.1038 20.8681 28.0795 24.5422 25.939 27.9109C21.6706 34.6283 13.1494 39.8572 2.27606 37.5462L1.72766 40.1264C13.8228 42.6971 23.3894 36.8418 28.1653 29.3256C30.5469 25.5775 31.7839 21.3474 31.4992 17.4666C31.2117 13.5475 29.3619 9.9896 25.6371 7.81326L24.3064 10.0908Z" fill="#D26D60"/>
</svg>
